HIERARCHY
ROOT hip
{
	OFFSET 0.000000 0.000000 0.000000 
	CHANNELS 6 Xposition Yposition Zposition Xrotation Zrotation Yrotation
	JOINT abdomen
	{
		OFFSET 0.000000 3.402643 0.000000 
		CHANNELS 3 Xrotation Zrotation Yrotation
		JOINT chest
		{
			OFFSET 0.000000 8.438565 -0.680529 
			CHANNELS 3 Xrotation Zrotation Yrotation
			JOINT neck
			{
				OFFSET 0.000000 10.207942 -0.272212 
				CHANNELS 3 Xrotation Zrotation Yrotation
				JOINT head
				{
					OFFSET 0.000000 3.130431 0.000000 
					CHANNELS 3 Xrotation Zrotation Yrotation
					End Site
					{
						OFFSET 0.000000 3.130435 0.000000 
					}
				}
			}
			JOINT lCollar
			{
				OFFSET 3.470700 6.669187 -0.816635 
				CHANNELS 3 Yrotation Zrotation Xrotation
				JOINT lShldr
				{
					OFFSET 3.198488 0.000000 0.000000 
					CHANNELS 3 Zrotation Yrotation Xrotation
					JOINT lForeArm
					{
						OFFSET 10.139888 0.000000 0.000000 
						CHANNELS 3 Yrotation Zrotation Xrotation
						JOINT lHand
						{
							OFFSET 8.370511 0.000000 0.000000 
							CHANNELS 3 Zrotation Yrotation Xrotation
							End Site
							{
								OFFSET 4.083176 0.000000 0.000000 
							}
						}
					}
				}
			}
			JOINT rCollar
			{
				OFFSET -3.470700 6.669187 -0.816635 
				CHANNELS 3 Yrotation Zrotation Xrotation
				JOINT rShldr
				{
					OFFSET -3.198488 0.000000 0.000000 
					CHANNELS 3 Zrotation Yrotation Xrotation
					JOINT rForeArm
					{
						OFFSET -10.139888 0.000000 0.000000 
						CHANNELS 3 Yrotation Zrotation Xrotation
						JOINT rHand
						{
							OFFSET -8.370511 0.000000 0.000000 
							CHANNELS 3 Zrotation Yrotation Xrotation
							End Site
							{
								OFFSET -4.083176 0.000000 0.000000 
							}
						}
					}
				}
			}
		}
	}
	JOINT lThigh
	{
		OFFSET 5.308129 -1.633274 1.361059 
		CHANNELS 3 Xrotation Zrotation Yrotation
		JOINT lShin
		{
			OFFSET -2.041588 -20.007561 0.000000 
			CHANNELS 3 Xrotation Zrotation Yrotation
			JOINT lFoot
			{
				OFFSET 0.000000 -19.190928 -1.224953 
				CHANNELS 3 Xrotation Yrotation Zrotation
				End Site
				{
					OFFSET 0.000000 -2.449906 4.627600 
				}
			}
		}
	}
	JOINT rThigh
	{
		OFFSET -5.308129 -1.633274 1.361059 
		CHANNELS 3 Xrotation Zrotation Yrotation
		JOINT rShin
		{
			OFFSET 2.041588 -20.007561 0.000000 
			CHANNELS 3 Xrotation Zrotation Yrotation
			JOINT rFoot
			{
				OFFSET 0.000000 -19.190928 -1.224953 
				CHANNELS 3 Xrotation Yrotation Zrotation
				End Site
				{
					OFFSET 0.000000 -2.449906 4.627600 
				}
			}
		}
	}
}
MOTION
Frames: 8
Frame Time: 0.033333
-7.113403 15.375444 -12.683467 1.630867 46.972797 55.143791 10.370376 -8.712459 -6.345483 48.691406 29.882813 20.268538 -5.226467 -9.399145 -24.955719 24.033203 13.095703 -26.863026 2.000000 -2.000000 0.000000 4.511723 -122.119141 -62.781704 -11.130425 -0.378251 2.441898 20.931812 -15.709435 56.867699 -2.000000 2.000000 0.000000 76.279297 5.400391 -91.639702 48.962738 0.108668 2.855976 -59.946926 15.036427 19.592844 -56.324680 22.114475 30.860188 136.868713 2.688953 -13.241397 -13.187886 -13.565986 22.261124 -43.331993 6.464223 -10.399738 35.403278 3.812768 11.868797 7.723101 4.232148 46.592621 
-7.658177 18.109131 -12.874243 13.349609 45.312500 58.818359 10.370376 -8.712459 -6.345483 43.232422 31.464844 18.784397 -5.592424 -9.102049 -24.222616 14.169923 10.781250 -27.224735 2.000000 -2.000000 0.000000 16.171894 -121.210938 -81.746635 -9.509543 -0.398334 2.433331 24.788458 -18.927195 58.485214 -2.000000 2.000000 0.000000 72.509766 5.175781 -91.131927 49.968163 0.136733 2.877234 -60.547195 15.201663 17.822367 -56.598198 16.998564 28.504791 128.644516 1.391140 -36.595619 -9.908937 -1.816489 13.107651 -42.346428 8.661459 -12.607810 42.913174 3.817556 18.691118 10.924413 4.596423 41.269157 
-8.755277 21.135656 -13.506477 25.624998 42.998047 61.083988 10.370376 -8.712459 -6.345483 39.960941 30.214844 17.299837 -5.783442 -8.994251 -23.650751 8.183594 7.421875 -26.835943 2.000000 -2.000000 0.000000 24.462896 -122.148438 -86.756317 -4.256009 -0.535980 2.422083 26.787323 -25.081793 50.237396 -2.000000 2.000000 0.000000 66.201172 7.128907 -88.994141 48.142418 0.176902 2.860098 -60.898914 13.511570 15.878164 -58.131195 11.354985 24.470772 116.050270 -0.159608 -56.966702 -12.732203 6.381103 -21.172764 -41.076801 7.489572 -13.336213 47.434811 3.893245 24.087559 14.753266 5.560073 35.223373 
-9.812104 24.070190 -13.672340 34.873047 40.976563 54.381401 10.370376 -8.712459 -6.345483 40.664063 22.900391 15.638567 -6.247760 -7.904250 -20.142490 1.396485 4.501954 -23.182827 2.000000 -2.000000 0.000000 27.919928 -123.056633 -92.879280 -5.554617 -0.535393 2.431829 30.938953 -26.014797 46.347206 -2.000000 2.000000 0.000000 59.160156 10.703125 -76.406250 41.191593 0.397833 2.765785 -63.764126 6.273395 8.838702 -58.177044 12.260736 22.895578 111.594414 -0.407734 -53.707268 -8.850669 4.068250 -8.453374 -35.328243 1.485440 -24.405230 50.603771 4.767036 46.452766 19.928480 5.393811 28.737320 
-12.294357 27.917082 -12.880410 41.396481 35.478516 45.537109 10.370376 -8.712459 -6.345483 40.361324 17.128906 14.306641 -6.834735 -6.288040 -15.470071 -7.812503 3.105469 -18.642576 2.000000 -2.000000 0.000000 27.031265 -122.783211 -94.764069 -7.800700 -0.554889 2.433007 36.054691 -22.454840 40.210289 -2.000000 2.000000 0.000000 47.871094 15.214844 -56.794312 29.797892 0.795988 2.652834 -64.185188 -8.593889 -1.963378 -58.827286 13.994029 14.614516 107.769394 -0.062031 -34.418659 8.866412 1.595117 -11.497672 -32.993603 11.188054 15.566834 36.438156 13.367592 31.233267 18.258739 -12.867192 47.729904 
-10.699298 29.161421 -13.437140 47.656250 31.337894 38.105465 10.370376 -8.712459 -6.345483 39.873051 12.382812 12.804829 -7.174966 -4.979365 -12.059643 -18.359377 2.031250 -14.755860 2.000000 -2.000000 0.000000 22.802750 -123.105469 -92.303101 -11.491247 -0.523295 2.470222 43.253971 -19.036045 35.722141 -2.000000 2.000000 0.000000 37.031250 26.152344 -49.653896 17.095295 1.144810 2.546691 -60.145821 -13.702944 -8.736841 -63.156982 12.039243 2.095374 120.589355 0.673666 -41.219276 8.590727 3.044417 3.225368 -37.637924 1.612913 -16.192667 57.003872 3.823271 37.860603 14.830263 3.395723 32.175232 
-10.301381 30.837898 -12.782377 52.939449 25.224611 30.537113 10.370376 -8.712459 -6.345483 38.574219 9.814453 11.953125 -7.433645 -3.885092 -9.274952 -27.402348 0.429687 -11.083985 2.000000 -2.000000 0.000000 18.837908 -120.410156 -89.676392 -16.119518 -0.482540 2.497102 53.402874 -17.064878 31.472767 -2.000000 2.000000 0.000000 28.525391 38.857422 -49.482418 7.301850 1.354219 2.481056 -56.374809 -13.298290 -11.899408 -67.720490 10.722153 -6.680125 127.510559 1.419619 -35.612492 6.060327 4.843087 11.423105 -37.160038 -4.078613 -18.791800 62.622478 3.616205 39.317417 16.098724 4.520798 33.963993 
-9.516122 31.902029 -11.920478 54.345703 20.976563 23.636309 10.370376 -8.712459 -6.345483 40.869141 8.212891 11.904296 -7.402902 -3.332299 -7.953912 -34.199219 -1.611328 -8.349884 2.000000 -2.000000 0.000000 19.248047 -116.689453 -96.269531 -27.660389 -0.262207 2.581602 59.190899 -22.702143 32.476578 -2.000000 2.000000 0.000000 25.830078 49.755863 -52.717155 2.517061 1.404134 2.464500 -56.913647 -9.609220 -11.258141 -69.668282 11.541752 -3.799668 129.970047 2.102563 -19.954281 2.323252 1.933816 16.707205 -31.253990 -12.963539 -20.277311 67.378853 3.176318 37.357681 18.072899 5.189529 36.358509 
